<svg width="40" height="40" viewBox="0 0 40 40" fill="none" xmlns="http://www.w3.org/2000/svg">
<rect x="0.75" y="0.75" width="38.5" height="38.5" rx="19.25" stroke="#0A0354" stroke-width="1.5"/>
<g clip-path="url(#clip0_589_12246)">
<path d="M32 20C32 13.3724 26.6272 8 20 8C13.3728 8 8 13.3724 8 20C8 25.9893 12.3884 30.954 18.1249 31.8542V23.4689H15.0779V20H18.1249V17.3564C18.1249 14.3487 19.9167 12.6877 22.6573 12.6877C23.9703 12.6877 25.3435 12.9244 25.3435 12.9244V15.8772H23.8306C22.3396 15.8772 21.8751 16.8024 21.8751 17.7513V20.0024H25.2029L24.6711 23.4713H21.8737V31.8542C27.6116 30.954 32 25.9893 32 20Z" fill="#1877F2"/>
<path d="M24.6713 23.4689L25.2031 20H21.8738V17.749C21.8738 16.802 22.3384 15.8748 23.8294 15.8748H25.3423V12.9244C25.3423 12.9244 23.9691 12.6877 22.6561 12.6877C19.9154 12.6877 18.1237 14.3487 18.1237 17.3564V20H15.0781V23.4689H18.1251V31.8542C19.3676 32.0488 20.6328 32.0488 21.8753 31.8542V23.4689H24.6713V23.4689Z" fill="white"/>
</g>
<defs>
<clipPath id="clip0_589_12246">
<rect width="24" height="24" fill="white" transform="translate(8 8)"/>
</clipPath>
</defs>
</svg>
