<svg width="40" height="40" viewBox="0 0 40 40" fill="none" xmlns="http://www.w3.org/2000/svg">
<rect x="0.75" y="0.75" width="38.5" height="38.5" rx="19.25" stroke="#0A0354" stroke-width="1.5"/>
<g clip-path="url(#clip0_589_12252)">
<path fill-rule="evenodd" clip-rule="evenodd" d="M29.9991 20.2222C29.9991 19.3999 29.931 18.7999 29.7837 18.1777H20.2031V21.8888H25.8267C25.7133 22.8111 25.1011 24.1999 23.7405 25.1332L23.7215 25.2575L26.7506 27.5572L26.9605 27.5778C28.8879 25.8333 29.9991 23.2666 29.9991 20.2222H29.9991Z" fill="#4285F4"/>
<path fill-rule="evenodd" clip-rule="evenodd" d="M20.2036 30C22.9587 30 25.2716 29.1111 26.961 27.5778L23.741 25.1333C22.8793 25.7222 21.7228 26.1333 20.2036 26.1333C17.5052 26.1333 15.215 24.3889 14.3985 21.9778L14.2789 21.9877L11.1291 24.3766L11.0879 24.4888C12.7659 27.7555 16.2126 30 20.2036 30Z" fill="#34A853"/>
<path fill-rule="evenodd" clip-rule="evenodd" d="M14.399 21.9778C14.1836 21.3556 14.0589 20.6888 14.0589 20C14.0589 19.3111 14.1836 18.6444 14.3877 18.0222L14.382 17.8896L11.1927 15.4623L11.0884 15.511C10.3968 16.8666 10 18.3888 10 19.9999C10 21.611 10.3969 23.1332 11.0884 24.4888L14.399 21.9777L14.399 21.9777V21.9778Z" fill="#FBBC04"/>
<path fill-rule="evenodd" clip-rule="evenodd" d="M20.2036 13.8666C22.1197 13.8666 23.4122 14.6777 24.1492 15.3556L27.029 12.6C25.2604 10.9889 22.9587 10 20.2036 10C16.2127 10 12.7659 12.2444 11.0879 15.5111L14.3872 18.0223C15.215 15.6111 17.5052 13.8666 20.2036 13.8666V13.8666V13.8666Z" fill="#EA4335"/>
</g>
<defs>
<clipPath id="clip0_589_12252">
<rect width="20" height="20" fill="white" transform="translate(10 10)"/>
</clipPath>
</defs>
</svg>
